<?xml version="1.0" encoding="UTF-8" standalone="no"?>
<!-- Created with Inkscape (http://www.inkscape.org/) -->

<svg
   version="1.1"
   id="svg2"
   width="178.92923"
   height="114.23166"
   viewBox="0 0 178.92923 114.23166"
   sodipodi:docname="cg_logo.svg"
   inkscape:version="1.2.1 (9c6d41e410, 2022-07-14)"
   xmlns:inkscape="http://www.inkscape.org/namespaces/inkscape"
   xmlns:sodipodi="http://sodipodi.sourceforge.net/DTD/sodipodi-0.dtd"
   xmlns="http://www.w3.org/2000/svg"
   xmlns:svg="http://www.w3.org/2000/svg">
  <defs
     id="defs6" />
  <sodipodi:namedview
     id="namedview4"
     pagecolor="#ffffff"
     bordercolor="#000000"
     borderopacity="0.25"
     inkscape:showpageshadow="2"
     inkscape:pageopacity="0.0"
     inkscape:pagecheckerboard="0"
     inkscape:deskcolor="#d1d1d1"
     showgrid="false"
     inkscape:zoom="1.8716233"
     inkscape:cx="-7.7472856"
     inkscape:cy="54.498147"
     inkscape:window-width="1920"
     inkscape:window-height="1027"
     inkscape:window-x="-8"
     inkscape:window-y="108"
     inkscape:window-maximized="1"
     inkscape:current-layer="g8" />
  <g
     inkscape:groupmode="layer"
     inkscape:label="Image"
     id="g8"
     transform="translate(-6.5353839,-22.884171)">
    <path
       id="path1307"
       style="fill:#ffffff;stroke-width:1.0109"
       d="M 6.5353839,80 V 22.884171 H 33.829674 61.123965 V 80 137.11583 H 33.829674 6.5353839 Z M 26.68895,126.26751 c 1.192125,-4.31751 3.478001,-28.422333 2.94549,-31.060436 -0.319688,-1.583767 -0.627688,-1.536912 -3.193566,0.485819 -1.561849,1.231244 -4.973635,3.048032 -7.581747,4.037299 l -4.741997,1.798688 -0.280493,14.25533 -0.280461,14.25532 h 6.045634 6.045634 z m 26.330549,-11.6442 -0.01737,-15.416217 -5.795404,-2.343247 c -10.207086,-4.127007 -9.333537,-4.682322 -9.333537,5.933414 0,20.56853 2.482182,27.24227 10.132297,27.24227 h 5.031198 l -0.01737,-15.41622 z M 22.076265,84.290695 c 2.218309,-3.841341 6.698911,-16.632547 6.698911,-19.124061 0,-0.535291 -1.312461,-0.03872 -2.916579,1.103529 -1.604104,1.142235 -5.015892,2.976665 -7.581747,4.076513 l -4.665168,1.999733 v 9.665424 9.665432 l 2.993383,-1.54794 c 1.646361,-0.85137 4.108397,-3.478749 5.4712,-5.83863 z m 30.9389,-4.543419 -0.02149,-9.856272 -6.387088,-2.03103 -6.387076,-2.031028 0.901176,4.052827 c 1.782643,8.01675 8.527729,19.721774 11.364829,19.721774 0.303269,0 0.54168,-4.435323 0.529793,-9.856271 z M 19.170081,58.134251 c 5.214091,-5.771368 8.740027,-13.948455 9.363447,-21.714983 l 0.518452,-6.4588 h -7.720151 -7.720147 v 16.174393 c 0,17.774034 0.115716,18.023805 5.558399,11.99939 z M 53.036766,45.123962 V 29.960468 h -8.228004 -8.228007 l 0.607867,5.132522 c 1.035281,8.741326 10.808759,25.194467 14.965993,25.194467 0.485182,0 0.882151,-6.823573 0.882151,-15.163495 z M 68.200261,80 V 22.884171 H 95.49455 122.78884 V 80 137.11583 H 95.49455 68.200261 Z m 21.011861,44.47958 c 2.471153,-9.6131 2.904173,-31.668996 0.581327,-29.609752 -1.072147,0.950467 -4.549603,2.878082 -7.727679,4.283577 l -5.778312,2.555445 v 14.21578 14.2158 l 5.812673,-0.30317 5.812672,-0.30318 z m 25.474078,-9.85627 -0.0157,-15.416217 -6.76376,-2.755267 c -9.114947,-3.713196 -9.641792,-2.437642 -7.32931,17.746394 1.58044,13.79441 2.7457,15.84131 9.01823,15.84131 h 5.10609 l -0.0157,-15.41622 z M 83.921651,84.397464 c 2.758115,-4.051332 7.383588,-17.516382 6.366543,-18.533439 -0.220186,-0.220187 -3.433671,1.05072 -7.141077,2.824221 l -6.740738,3.224557 -0.209129,7.076298 c -0.115016,3.891964 -0.264571,7.986106 -0.332333,9.098096 -0.307597,5.047605 3.202935,3.439889 8.056741,-3.689733 z m 30.779989,-4.822588 v -10.02868 l -3.28542,-0.707519 c -1.80698,-0.389134 -4.5949,-1.377025 -6.19538,-2.195299 l -2.90996,-1.487783 0.70484,3.88406 c 1.23619,6.811935 8.77314,20.563892 11.27033,20.563892 0.22871,0 0.41559,-4.512909 0.41559,-10.028671 z M 84.654036,53.930304 c 2.593728,-3.797495 4.311174,-7.854763 5.299552,-12.519509 2.537953,-11.978158 2.760753,-11.582988 -6.33711,-11.240119 -5.504986,0.207454 -7.804416,0.670962 -7.733381,1.558867 0.0556,0.694993 0.169325,7.915233 0.252724,16.044967 l 0.151637,14.781345 2.264648,-1.503662 c 1.245549,-0.827017 3.991424,-4.031872 6.10193,-7.121889 z M 114.70164,45.123962 V 29.960468 h -8.08719 c -9.127595,0 -8.856725,-0.346485 -6.57566,8.41109 2.35486,9.04097 10.57996,21.915899 14.00087,21.915899 0.36408,0 0.66198,-6.823573 0.66198,-15.163495 z M 130.87604,80 V 22.884171 h 27.29428 27.2943 V 80 137.11583 h -27.2943 -27.29428 z m 20.13226,46.24866 c 1.12714,-4.25958 3.11843,-22.60778 3.11843,-28.733864 V 93.50947 l -3.1195,2.221291 c -1.71573,1.221704 -5.24123,3.026067 -7.83449,4.009702 l -4.71495,1.788417 -0.28053,14.25533 -0.28053,14.25532 h 6.05419 6.05419 z m 26.35184,-11.62535 -0.0157,-15.416217 -5.79539,-2.343247 c -10.20709,-4.127007 -9.33354,-4.682322 -9.33354,5.933414 0,20.56853 2.48216,27.24227 10.1323,27.24227 h 5.0297 l -0.0157,-15.41622 z M 146.41691,84.290695 c 2.21834,-3.841341 6.69892,-16.632547 6.69892,-19.124061 0,-0.535291 -1.31246,-0.03872 -2.91657,1.103529 -1.60411,1.142235 -5.01589,2.976665 -7.58175,4.076513 l -4.66517,1.999733 v 9.665424 9.665432 l 2.99339,-1.54794 c 1.64635,-0.85137 4.1084,-3.478749 5.47118,-5.83863 z m 30.93891,-4.543419 -0.0221,-9.856272 -6.38709,-2.03103 -6.38705,-2.031028 0.90115,4.052827 c 1.71724,7.722606 8.63043,19.721774 11.3625,19.721774 0.30454,0 0.544,-4.435323 0.53212,-9.856271 z m -34.7077,-20.723444 c 6.82335,-7.300717 10.46771,-15.899297 10.46771,-24.697793 v -4.365571 h -7.58175 -7.58174 v 16.174393 c 0,17.48339 0.11276,17.792703 4.69578,12.888971 z m 34.72931,-13.89987 V 29.960468 h -8.228 -8.22803 l 0.60787,5.132522 c 1.03528,8.741326 10.80876,25.194467 14.96601,25.194467 0.48518,0 0.88215,-6.823573 0.88215,-15.163495 z" />
  </g>
</svg>
